<svg width="241" height="117" viewBox="0 0 241 117" fill="none" xmlns="http://www.w3.org/2000/svg">
<path d="M130.075 33.0797L120.509 23.5137L110.943 33.0797" stroke="#F29C46" stroke-width="3" stroke-linecap="round" stroke-linejoin="round"/>
<path d="M120.509 23.5137V45.0377" stroke="#F29C46" stroke-width="3" stroke-linecap="round" stroke-linejoin="round"/>
<path d="M140.574 38.7917C142.906 37.52 144.749 35.5077 145.811 33.0725C146.873 30.6372 147.094 27.9177 146.438 25.3431C145.783 22.7685 144.289 20.4854 142.192 18.8542C140.095 17.223 137.515 16.3365 134.858 16.3347H131.845C131.12 13.5357 129.77 10.9374 127.896 8.73517C126.023 6.53289 123.675 4.78389 121.028 3.61962C118.381 2.45535 115.505 1.90609 112.616 2.01311C109.727 2.12014 106.899 2.88066 104.346 4.23754C101.793 5.59441 99.5801 7.51234 97.8747 9.84718C96.1692 12.182 95.0151 14.873 94.4992 17.718C93.9832 20.563 94.1188 23.4879 94.8958 26.2729C95.6727 29.058 97.0708 31.6307 98.9849 33.7977" stroke="#F29C46" stroke-width="3" stroke-linecap="round" stroke-linejoin="round"/>
<path d="M130.075 33.0797L120.509 23.5137L110.943 33.0797" stroke="#F29C46" stroke-width="3" stroke-linecap="round" stroke-linejoin="round"/>
<path d="M40.3975 87.0377H38.8535L37.5918 83.7008H32.5449L31.3579 87.0377H29.8057L34.3711 75.1344H35.8154L40.3975 87.0377ZM37.1353 82.4474L35.2676 77.3756C35.2067 77.2096 35.1458 76.944 35.085 76.5787H35.0518C34.9964 76.9163 34.9328 77.1819 34.8608 77.3756L33.0098 82.4474H37.1353ZM49.0303 87.0377H47.6689V82.1901C47.6689 80.386 47.0104 79.484 45.6934 79.484C45.0127 79.484 44.4482 79.7413 44 80.256C43.5573 80.7651 43.3359 81.4098 43.3359 82.1901V87.0377H41.9746V78.5377H43.3359V79.9488H43.3691C44.0111 78.8753 44.9408 78.3385 46.1582 78.3385C47.0879 78.3385 47.799 78.6401 48.2915 79.2433C48.784 79.8409 49.0303 80.707 49.0303 81.8414V87.0377ZM58.4351 83.128H52.4336C52.4557 84.0743 52.7103 84.8048 53.1973 85.3195C53.6842 85.8341 54.3538 86.0914 55.2061 86.0914C56.1634 86.0914 57.0433 85.776 57.8457 85.1451V86.4235C57.0986 86.9658 56.1108 87.2369 54.8823 87.2369C53.6815 87.2369 52.738 86.8523 52.0518 86.0831C51.3656 85.3084 51.0225 84.221 51.0225 82.8209C51.0225 81.4983 51.396 80.422 52.1431 79.5919C52.8957 78.7563 53.8281 78.3385 54.9404 78.3385C56.0527 78.3385 56.9132 78.6982 57.522 79.4176C58.1307 80.137 58.4351 81.1359 58.4351 82.4142V83.128ZM57.0405 81.9742C57.035 81.1884 56.8441 80.5769 56.4678 80.1398C56.097 79.7026 55.5796 79.484 54.9155 79.484C54.2736 79.484 53.7285 79.7137 53.2803 80.173C52.832 80.6323 52.5553 81.2327 52.4502 81.9742H57.0405ZM66.7109 78.5377L63.8555 82.8375L66.6611 87.0377H65.0757L63.4072 84.2819C63.3021 84.1103 63.1776 83.8945 63.0337 83.6344H63.0005C62.9728 83.6842 62.8428 83.9 62.6104 84.2819L60.9087 87.0377H59.3398L62.2368 82.8707L59.4644 78.5377H61.0498L62.6934 81.443C62.8151 81.6588 62.9341 81.8802 63.0503 82.107H63.0835L65.2085 78.5377H66.7109ZM74.3892 87.0377H73.0278V85.7096H72.9946C72.4025 86.7278 71.5309 87.2369 70.3799 87.2369C69.5332 87.2369 68.8691 87.0128 68.3877 86.5646C67.9118 86.1163 67.6738 85.5214 67.6738 84.7799C67.6738 83.1917 68.609 82.2675 70.4795 82.0074L73.0278 81.6505C73.0278 80.2062 72.444 79.484 71.2764 79.484C70.2526 79.484 69.3285 79.8326 68.5039 80.5299V79.1354C69.3395 78.6041 70.3024 78.3385 71.3926 78.3385C73.3903 78.3385 74.3892 79.3955 74.3892 81.5094V87.0377ZM73.0278 82.7379L70.9775 83.0201C70.3467 83.1087 69.8708 83.2664 69.5498 83.4933C69.2288 83.7146 69.0684 84.1103 69.0684 84.6803C69.0684 85.0953 69.215 85.4357 69.5083 85.7013C69.8071 85.9614 70.2028 86.0914 70.6953 86.0914C71.3704 86.0914 71.9266 85.8562 72.3638 85.3859C72.8065 84.9099 73.0278 84.3095 73.0278 83.5846V82.7379ZM81.3867 79.9156C81.1488 79.733 80.8057 79.6417 80.3574 79.6417C79.7764 79.6417 79.2894 79.9156 78.8965 80.4635C78.5091 81.0113 78.3154 81.7584 78.3154 82.7047V87.0377H76.9541V78.5377H78.3154V80.2892H78.3486C78.5423 79.6915 78.8384 79.2267 79.2368 78.8946C79.6353 78.5571 80.0807 78.3883 80.5732 78.3883C80.9274 78.3883 81.1986 78.427 81.3867 78.5045V79.9156ZM91.7295 75.649C91.4639 75.4996 91.1623 75.4249 90.8247 75.4249C89.8729 75.4249 89.397 76.0253 89.397 77.2262V78.5377H91.3892V79.6998H89.397V87.0377H88.0439V79.6998H86.5913V78.5377H88.0439V77.1598C88.0439 76.2688 88.3013 75.566 88.8159 75.0514C89.3306 74.5312 89.9725 74.2711 90.7417 74.2711C91.1567 74.2711 91.486 74.3209 91.7295 74.4205V75.649ZM96.4111 87.2369C95.1549 87.2369 94.1506 86.8413 93.3979 86.0499C92.6509 85.253 92.2773 84.1988 92.2773 82.8873C92.2773 81.4596 92.6675 80.3445 93.4478 79.5421C94.228 78.7397 95.2822 78.3385 96.6104 78.3385C97.8776 78.3385 98.8654 78.7286 99.5737 79.5089C100.288 80.2892 100.645 81.371 100.645 82.7545C100.645 84.1103 100.26 85.1977 99.4907 86.0167C98.7271 86.8302 97.7005 87.2369 96.4111 87.2369ZM96.5107 79.484C95.6364 79.484 94.9447 79.7828 94.4355 80.3805C93.9264 80.9726 93.6719 81.7916 93.6719 82.8375C93.6719 83.8447 93.9292 84.6388 94.4438 85.2198C94.9585 85.8009 95.6475 86.0914 96.5107 86.0914C97.3906 86.0914 98.0658 85.8064 98.5361 85.2364C99.012 84.6665 99.25 83.8557 99.25 82.8043C99.25 81.7418 99.012 80.9228 98.5361 80.3473C98.0658 79.7718 97.3906 79.484 96.5107 79.484ZM106.762 86.9547C106.441 87.1318 106.018 87.2203 105.492 87.2203C104.004 87.2203 103.259 86.3903 103.259 84.7301V79.6998H101.798V78.5377H103.259V76.4625L104.621 76.0226V78.5377H106.762V79.6998H104.621V84.4894C104.621 85.0594 104.717 85.4661 104.911 85.7096C105.105 85.9531 105.426 86.0748 105.874 86.0748C106.217 86.0748 106.513 85.9807 106.762 85.7926V86.9547ZM112.133 87.2369C110.877 87.2369 109.872 86.8413 109.12 86.0499C108.373 85.253 107.999 84.1988 107.999 82.8873C107.999 81.4596 108.389 80.3445 109.169 79.5421C109.95 78.7397 111.004 78.3385 112.332 78.3385C113.599 78.3385 114.587 78.7286 115.295 79.5089C116.009 80.2892 116.366 81.371 116.366 82.7545C116.366 84.1103 115.982 85.1977 115.212 86.0167C114.449 86.8302 113.422 87.2369 112.133 87.2369ZM112.232 79.484C111.358 79.484 110.666 79.7828 110.157 80.3805C109.648 80.9726 109.394 81.7916 109.394 82.8375C109.394 83.8447 109.651 84.6388 110.166 85.2198C110.68 85.8009 111.369 86.0914 112.232 86.0914C113.112 86.0914 113.787 85.8064 114.258 85.2364C114.734 84.6665 114.972 83.8557 114.972 82.8043C114.972 81.7418 114.734 80.9228 114.258 80.3473C113.787 79.7718 113.112 79.484 112.232 79.484ZM130.461 87.0377H129.1V85.5934H129.066C128.436 86.6891 127.462 87.2369 126.145 87.2369C125.076 87.2369 124.222 86.8579 123.58 86.0997C122.943 85.3361 122.625 84.2985 122.625 82.9869C122.625 81.5813 122.979 80.4552 123.688 79.6085C124.396 78.7618 125.339 78.3385 126.518 78.3385C127.686 78.3385 128.535 78.7978 129.066 79.7164H129.1V74.4537H130.461V87.0377ZM129.1 83.1945V81.941C129.1 81.2548 128.873 80.6738 128.419 80.1979C127.965 79.722 127.39 79.484 126.692 79.484C125.862 79.484 125.209 79.7884 124.733 80.3971C124.257 81.0058 124.02 81.847 124.02 82.9205C124.02 83.9 124.246 84.6748 124.7 85.2447C125.16 85.8092 125.774 86.0914 126.543 86.0914C127.301 86.0914 127.915 85.8175 128.386 85.2696C128.862 84.7218 129.1 84.0301 129.1 83.1945ZM136.77 87.2369C135.513 87.2369 134.509 86.8413 133.756 86.0499C133.009 85.253 132.636 84.1988 132.636 82.8873C132.636 81.4596 133.026 80.3445 133.806 79.5421C134.586 78.7397 135.641 78.3385 136.969 78.3385C138.236 78.3385 139.224 78.7286 139.932 79.5089C140.646 80.2892 141.003 81.371 141.003 82.7545C141.003 84.1103 140.618 85.1977 139.849 86.0167C139.085 86.8302 138.059 87.2369 136.77 87.2369ZM136.869 79.484C135.995 79.484 135.303 79.7828 134.794 80.3805C134.285 80.9726 134.03 81.7916 134.03 82.8375C134.03 83.8447 134.288 84.6388 134.802 85.2198C135.317 85.8009 136.006 86.0914 136.869 86.0914C137.749 86.0914 138.424 85.8064 138.895 85.2364C139.37 84.6665 139.608 83.8557 139.608 82.8043C139.608 81.7418 139.37 80.9228 138.895 80.3473C138.424 79.7718 137.749 79.484 136.869 79.484ZM149.237 85.8092H149.204V90.9474H147.843V78.5377H149.204V80.0319H149.237C149.907 78.9029 150.886 78.3385 152.176 78.3385C153.271 78.3385 154.126 78.7203 154.741 79.484C155.355 80.2421 155.662 81.2604 155.662 82.5387C155.662 83.9609 155.316 85.1009 154.625 85.9586C153.933 86.8108 152.986 87.2369 151.786 87.2369C150.684 87.2369 149.835 86.761 149.237 85.8092ZM149.204 82.381V83.568C149.204 84.2708 149.431 84.8684 149.885 85.361C150.344 85.8479 150.925 86.0914 151.628 86.0914C152.452 86.0914 153.097 85.776 153.562 85.1451C154.032 84.5143 154.268 83.6372 154.268 82.5138C154.268 81.5675 154.049 80.826 153.612 80.2892C153.175 79.7524 152.583 79.484 151.835 79.484C151.044 79.484 150.408 79.7607 149.926 80.3141C149.445 80.8619 149.204 81.5509 149.204 82.381ZM162.27 79.9156C162.032 79.733 161.688 79.6417 161.24 79.6417C160.659 79.6417 160.172 79.9156 159.779 80.4635C159.392 81.0113 159.198 81.7584 159.198 82.7047V87.0377H157.837V78.5377H159.198V80.2892H159.231C159.425 79.6915 159.721 79.2267 160.12 78.8946C160.518 78.5571 160.964 78.3883 161.456 78.3883C161.81 78.3883 162.081 78.427 162.27 78.5045V79.9156ZM167.3 87.2369C166.044 87.2369 165.039 86.8413 164.287 86.0499C163.54 85.253 163.166 84.1988 163.166 82.8873C163.166 81.4596 163.556 80.3445 164.336 79.5421C165.117 78.7397 166.171 78.3385 167.499 78.3385C168.766 78.3385 169.754 78.7286 170.462 79.5089C171.176 80.2892 171.533 81.371 171.533 82.7545C171.533 84.1103 171.149 85.1977 170.379 86.0167C169.616 86.8302 168.589 87.2369 167.3 87.2369ZM167.399 79.484C166.525 79.484 165.833 79.7828 165.324 80.3805C164.815 80.9726 164.561 81.7916 164.561 82.8375C164.561 83.8447 164.818 84.6388 165.333 85.2198C165.847 85.8009 166.536 86.0914 167.399 86.0914C168.279 86.0914 168.954 85.8064 169.425 85.2364C169.901 84.6665 170.139 83.8557 170.139 82.8043C170.139 81.7418 169.901 80.9228 169.425 80.3473C168.954 79.7718 168.279 79.484 167.399 79.484ZM180.963 87.0377H179.602V85.5934H179.568C178.938 86.6891 177.964 87.2369 176.646 87.2369C175.578 87.2369 174.723 86.8579 174.082 86.0997C173.445 85.3361 173.127 84.2985 173.127 82.9869C173.127 81.5813 173.481 80.4552 174.189 79.6085C174.898 78.7618 175.841 78.3385 177.02 78.3385C178.188 78.3385 179.037 78.7978 179.568 79.7164H179.602V74.4537H180.963V87.0377ZM179.602 83.1945V81.941C179.602 81.2548 179.375 80.6738 178.921 80.1979C178.467 79.722 177.892 79.484 177.194 79.484C176.364 79.484 175.711 79.7884 175.235 80.3971C174.759 81.0058 174.521 81.847 174.521 82.9205C174.521 83.9 174.748 84.6748 175.202 85.2447C175.661 85.8092 176.276 86.0914 177.045 86.0914C177.803 86.0914 178.417 85.8175 178.888 85.2696C179.364 84.7218 179.602 84.0301 179.602 83.1945ZM190.592 87.0377H189.23V85.693H189.197C188.633 86.7223 187.758 87.2369 186.574 87.2369C184.549 87.2369 183.536 86.0306 183.536 83.6178V78.5377H184.889V83.402C184.889 85.1949 185.575 86.0914 186.948 86.0914C187.612 86.0914 188.157 85.8479 188.583 85.361C189.015 84.8684 189.23 84.2265 189.23 83.4352V78.5377H190.592V87.0377ZM197.291 86.9547C196.97 87.1318 196.546 87.2203 196.021 87.2203C194.532 87.2203 193.788 86.3903 193.788 84.7301V79.6998H192.327V78.5377H193.788V76.4625L195.149 76.0226V78.5377H197.291V79.6998H195.149V84.4894C195.149 85.0594 195.246 85.4661 195.439 85.7096C195.633 85.9531 195.954 86.0748 196.402 86.0748C196.745 86.0748 197.042 85.9807 197.291 85.7926V86.9547ZM202.661 87.2369C201.405 87.2369 200.401 86.8413 199.648 86.0499C198.901 85.253 198.527 84.1988 198.527 82.8873C198.527 81.4596 198.917 80.3445 199.698 79.5421C200.478 78.7397 201.532 78.3385 202.86 78.3385C204.128 78.3385 205.115 78.7286 205.824 79.5089C206.538 80.2892 206.895 81.371 206.895 82.7545C206.895 84.1103 206.51 85.1977 205.741 86.0167C204.977 86.8302 203.951 87.2369 202.661 87.2369ZM202.761 79.484C201.886 79.484 201.195 79.7828 200.686 80.3805C200.176 80.9726 199.922 81.7916 199.922 82.8375C199.922 83.8447 200.179 84.6388 200.694 85.2198C201.208 85.8009 201.897 86.0914 202.761 86.0914C203.641 86.0914 204.316 85.8064 204.786 85.2364C205.262 84.6665 205.5 83.8557 205.5 82.8043C205.5 81.7418 205.262 80.9228 204.786 80.3473C204.316 79.7718 203.641 79.484 202.761 79.484ZM209.542 87.2203C209.288 87.2203 209.069 87.129 208.887 86.9464C208.71 86.7638 208.621 86.5452 208.621 86.2906C208.621 86.0361 208.71 85.8175 208.887 85.6349C209.069 85.4467 209.288 85.3527 209.542 85.3527C209.803 85.3527 210.024 85.4467 210.207 85.6349C210.389 85.8175 210.48 86.0361 210.48 86.2906C210.48 86.5452 210.389 86.7638 210.207 86.9464C210.024 87.129 209.803 87.2203 209.542 87.2203ZM1.4585 110.556V108.913C1.64665 109.079 1.87077 109.228 2.13086 109.361C2.39648 109.494 2.67318 109.607 2.96094 109.701C3.25423 109.79 3.54753 109.859 3.84082 109.909C4.13411 109.959 4.40527 109.984 4.6543 109.984C5.51204 109.984 6.1512 109.826 6.57178 109.51C6.99788 109.189 7.21094 108.73 7.21094 108.132C7.21094 107.811 7.139 107.532 6.99512 107.294C6.85677 107.056 6.66309 106.84 6.41406 106.647C6.16504 106.447 5.86898 106.259 5.52588 106.082C5.18831 105.9 4.82308 105.709 4.43018 105.509C4.01514 105.299 3.62777 105.086 3.26807 104.87C2.90837 104.654 2.5957 104.416 2.33008 104.156C2.06445 103.896 1.85417 103.603 1.69922 103.276C1.5498 102.944 1.4751 102.557 1.4751 102.114C1.4751 101.572 1.59408 101.102 1.83203 100.703C2.06999 100.299 2.38265 99.9672 2.77002 99.7071C3.15739 99.4471 3.59733 99.2534 4.08984 99.1261C4.58789 98.9988 5.09424 98.9352 5.60889 98.9352C6.78206 98.9352 7.63704 99.0763 8.17383 99.3585V100.927C7.47103 100.44 6.56901 100.197 5.46777 100.197C5.16341 100.197 4.85905 100.23 4.55469 100.297C4.25033 100.357 3.97917 100.46 3.74121 100.604C3.50326 100.748 3.30957 100.933 3.16016 101.16C3.01074 101.387 2.93604 101.663 2.93604 101.99C2.93604 102.294 2.99137 102.557 3.10205 102.778C3.21826 103 3.38704 103.202 3.6084 103.384C3.82975 103.567 4.09814 103.744 4.41357 103.916C4.73454 104.087 5.10254 104.275 5.51758 104.48C5.94368 104.69 6.34766 104.912 6.72949 105.144C7.11133 105.377 7.44613 105.634 7.73389 105.916C8.02165 106.198 8.24854 106.511 8.41455 106.854C8.5861 107.197 8.67188 107.59 8.67188 108.033C8.67188 108.619 8.55566 109.117 8.32324 109.527C8.09635 109.931 7.78646 110.26 7.39355 110.515C7.00618 110.769 6.55794 110.952 6.04883 111.063C5.53971 111.179 5.00293 111.237 4.43848 111.237C4.25033 111.237 4.0179 111.22 3.74121 111.187C3.46452 111.159 3.18229 111.115 2.89453 111.054C2.60677 110.999 2.33285 110.93 2.07275 110.847C1.8182 110.758 1.61344 110.661 1.4585 110.556ZM17.6948 107.128H11.6934C11.7155 108.074 11.9701 108.805 12.457 109.319C12.944 109.834 13.6136 110.091 14.4658 110.091C15.4232 110.091 16.3031 109.776 17.1055 109.145V110.423C16.3584 110.966 15.3706 111.237 14.1421 111.237C12.9412 111.237 11.9977 110.852 11.3115 110.083C10.6253 109.308 10.2822 108.221 10.2822 106.821C10.2822 105.498 10.6558 104.422 11.4028 103.592C12.1554 102.756 13.0879 102.338 14.2002 102.338C15.3125 102.338 16.173 102.698 16.7817 103.418C17.3905 104.137 17.6948 105.136 17.6948 106.414V107.128ZM16.3003 105.974C16.2948 105.188 16.1038 104.577 15.7275 104.14C15.3568 103.703 14.8394 103.484 14.1753 103.484C13.5334 103.484 12.9883 103.714 12.54 104.173C12.0918 104.632 11.8151 105.233 11.71 105.974H16.3003ZM25.8213 109.809H25.7881V114.947H24.4268V102.538H25.7881V104.032H25.8213C26.4909 102.903 27.4704 102.338 28.7598 102.338C29.8555 102.338 30.7104 102.72 31.3247 103.484C31.939 104.242 32.2461 105.26 32.2461 106.539C32.2461 107.961 31.9002 109.101 31.2085 109.959C30.5168 110.811 29.5705 111.237 28.3696 111.237C27.2684 111.237 26.4189 110.761 25.8213 109.809ZM25.7881 106.381V107.568C25.7881 108.271 26.015 108.868 26.4688 109.361C26.9281 109.848 27.5091 110.091 28.2119 110.091C29.0365 110.091 29.6812 109.776 30.146 109.145C30.6164 108.514 30.8516 107.637 30.8516 106.514C30.8516 105.567 30.633 104.826 30.1958 104.289C29.7586 103.752 29.1665 103.484 28.4194 103.484C27.6281 103.484 26.9917 103.761 26.5103 104.314C26.0288 104.862 25.7881 105.551 25.7881 106.381ZM38.8535 103.916C38.6156 103.733 38.2725 103.642 37.8242 103.642C37.2432 103.642 36.7562 103.916 36.3633 104.463C35.9759 105.011 35.7822 105.758 35.7822 106.705V111.038H34.4209V102.538H35.7822V104.289H35.8154C36.0091 103.692 36.3052 103.227 36.7036 102.895C37.1021 102.557 37.5475 102.388 38.04 102.388C38.3942 102.388 38.6654 102.427 38.8535 102.505V103.916ZM47.1626 107.128H41.1611C41.1833 108.074 41.4378 108.805 41.9248 109.319C42.4118 109.834 43.0814 110.091 43.9336 110.091C44.891 110.091 45.7708 109.776 46.5732 109.145V110.423C45.8262 110.966 44.8384 111.237 43.6099 111.237C42.409 111.237 41.4655 110.852 40.7793 110.083C40.0931 109.308 39.75 108.221 39.75 106.821C39.75 105.498 40.1235 104.422 40.8706 103.592C41.6232 102.756 42.5557 102.338 43.668 102.338C44.7803 102.338 45.6408 102.698 46.2495 103.418C46.8582 104.137 47.1626 105.136 47.1626 106.414V107.128ZM45.7681 105.974C45.7625 105.188 45.5716 104.577 45.1953 104.14C44.8245 103.703 44.3071 103.484 43.6431 103.484C43.0011 103.484 42.4561 103.714 42.0078 104.173C41.5596 104.632 41.2829 105.233 41.1777 105.974H45.7681ZM53.4297 99.649C53.1641 99.4996 52.8625 99.4249 52.5249 99.4249C51.5731 99.4249 51.0972 100.025 51.0972 101.226V102.538H53.0894V103.7H51.0972V111.038H49.7441V103.7H48.2915V102.538H49.7441V101.16C49.7441 100.269 50.0015 99.566 50.5161 99.0514C51.0308 98.5312 51.6727 98.2711 52.4419 98.2711C52.8569 98.2711 53.1862 98.3209 53.4297 98.4205V99.649ZM61.3901 107.128H55.3887C55.4108 108.074 55.6654 108.805 56.1523 109.319C56.6393 109.834 57.3089 110.091 58.1611 110.091C59.1185 110.091 59.9984 109.776 60.8008 109.145V110.423C60.0537 110.966 59.0659 111.237 57.8374 111.237C56.6366 111.237 55.693 110.852 55.0068 110.083C54.3206 109.308 53.9775 108.221 53.9775 106.821C53.9775 105.498 54.3511 104.422 55.0981 103.592C55.8507 102.756 56.7832 102.338 57.8955 102.338C59.0078 102.338 59.8683 102.698 60.4771 103.418C61.0858 104.137 61.3901 105.136 61.3901 106.414V107.128ZM59.9956 105.974C59.9901 105.188 59.7992 104.577 59.4229 104.14C59.0521 103.703 58.5347 103.484 57.8706 103.484C57.2287 103.484 56.6836 103.714 56.2354 104.173C55.7871 104.632 55.5104 105.233 55.4053 105.974H59.9956ZM67.8896 103.916C67.6517 103.733 67.3086 103.642 66.8604 103.642C66.2793 103.642 65.7923 103.916 65.3994 104.463C65.012 105.011 64.8184 105.758 64.8184 106.705V111.038H63.457V102.538H64.8184V104.289H64.8516C65.0452 103.692 65.3413 103.227 65.7397 102.895C66.1382 102.557 66.5837 102.388 67.0762 102.388C67.4303 102.388 67.7015 102.427 67.8896 102.505V103.916ZM70.0645 100.38C69.821 100.38 69.6134 100.297 69.4419 100.13C69.2703 99.9645 69.1846 99.7542 69.1846 99.4996C69.1846 99.2451 69.2703 99.0348 69.4419 98.8688C69.6134 98.6972 69.821 98.6114 70.0645 98.6114C70.3135 98.6114 70.5238 98.6972 70.6953 98.8688C70.8724 99.0348 70.9609 99.2451 70.9609 99.4996C70.9609 99.7431 70.8724 99.9506 70.6953 100.122C70.5238 100.294 70.3135 100.38 70.0645 100.38ZM70.7285 111.038H69.3672V102.538H70.7285V111.038ZM77.917 103.916C77.679 103.733 77.3359 103.642 76.8877 103.642C76.3066 103.642 75.8197 103.916 75.4268 104.463C75.0394 105.011 74.8457 105.758 74.8457 106.705V111.038H73.4844V102.538H74.8457V104.289H74.8789C75.0726 103.692 75.3687 103.227 75.7671 102.895C76.1655 102.557 76.611 102.388 77.1035 102.388C77.4577 102.388 77.7288 102.427 77.917 102.505V103.916ZM90.144 111.038H88.7827V109.71H88.7495C88.1574 110.728 87.2858 111.237 86.1348 111.237C85.2881 111.237 84.624 111.013 84.1426 110.565C83.6667 110.116 83.4287 109.521 83.4287 108.78C83.4287 107.192 84.3639 106.268 86.2344 106.007L88.7827 105.651C88.7827 104.206 88.1989 103.484 87.0312 103.484C86.0075 103.484 85.0833 103.833 84.2588 104.53V103.135C85.0944 102.604 86.0573 102.338 87.1475 102.338C89.1452 102.338 90.144 103.395 90.144 105.509V111.038ZM88.7827 106.738L86.7324 107.02C86.1016 107.109 85.6257 107.266 85.3047 107.493C84.9837 107.715 84.8232 108.11 84.8232 108.68C84.8232 109.095 84.9699 109.436 85.2632 109.701C85.562 109.961 85.9577 110.091 86.4502 110.091C87.1253 110.091 87.6815 109.856 88.1187 109.386C88.5614 108.91 88.7827 108.31 88.7827 107.585V106.738ZM97.1416 103.916C96.9036 103.733 96.5605 103.642 96.1123 103.642C95.5312 103.642 95.0443 103.916 94.6514 104.463C94.264 105.011 94.0703 105.758 94.0703 106.705V111.038H92.709V102.538H94.0703V104.289H94.1035C94.2972 103.692 94.5933 103.227 94.9917 102.895C95.3901 102.557 95.8356 102.388 96.3281 102.388C96.6823 102.388 96.9535 102.427 97.1416 102.505V103.916ZM103.052 103.916C102.814 103.733 102.471 103.642 102.022 103.642C101.441 103.642 100.954 103.916 100.562 104.463C100.174 105.011 99.9805 105.758 99.9805 106.705V111.038H98.6191V102.538H99.9805V104.289H100.014C100.207 103.692 100.503 103.227 100.902 102.895C101.3 102.557 101.746 102.388 102.238 102.388C102.592 102.388 102.864 102.427 103.052 102.505V103.916ZM110.614 111.038H109.252V109.71H109.219C108.627 110.728 107.756 111.237 106.604 111.237C105.758 111.237 105.094 111.013 104.612 110.565C104.136 110.116 103.898 109.521 103.898 108.78C103.898 107.192 104.834 106.268 106.704 106.007L109.252 105.651C109.252 104.206 108.669 103.484 107.501 103.484C106.477 103.484 105.553 103.833 104.729 104.53V103.135C105.564 102.604 106.527 102.338 107.617 102.338C109.615 102.338 110.614 103.395 110.614 105.509V111.038ZM109.252 106.738L107.202 107.02C106.571 107.109 106.095 107.266 105.774 107.493C105.453 107.715 105.293 108.11 105.293 108.68C105.293 109.095 105.44 109.436 105.733 109.701C106.032 109.961 106.427 110.091 106.92 110.091C107.595 110.091 108.151 109.856 108.588 109.386C109.031 108.91 109.252 108.31 109.252 107.585V106.738ZM112.664 110.731V109.27C113.406 109.817 114.222 110.091 115.113 110.091C116.308 110.091 116.906 109.693 116.906 108.896C116.906 108.669 116.853 108.478 116.748 108.323C116.648 108.163 116.51 108.022 116.333 107.9C116.161 107.778 115.957 107.67 115.719 107.576C115.486 107.477 115.235 107.374 114.963 107.269C114.587 107.12 114.255 106.97 113.967 106.821C113.685 106.666 113.447 106.494 113.253 106.306C113.065 106.113 112.921 105.894 112.822 105.651C112.728 105.407 112.681 105.122 112.681 104.796C112.681 104.397 112.772 104.046 112.955 103.741C113.137 103.431 113.381 103.174 113.685 102.969C113.989 102.759 114.335 102.601 114.723 102.496C115.116 102.391 115.52 102.338 115.935 102.338C116.671 102.338 117.329 102.466 117.91 102.72V104.098C117.285 103.689 116.565 103.484 115.752 103.484C115.497 103.484 115.268 103.514 115.063 103.575C114.858 103.631 114.681 103.711 114.532 103.816C114.388 103.921 114.274 104.048 114.191 104.198C114.114 104.342 114.075 104.502 114.075 104.679C114.075 104.901 114.114 105.086 114.191 105.235C114.274 105.385 114.393 105.518 114.548 105.634C114.703 105.75 114.891 105.855 115.113 105.949C115.334 106.043 115.586 106.146 115.868 106.256C116.244 106.4 116.582 106.55 116.881 106.705C117.18 106.854 117.434 107.026 117.645 107.219C117.855 107.408 118.015 107.626 118.126 107.875C118.242 108.124 118.3 108.42 118.3 108.763C118.3 109.184 118.206 109.549 118.018 109.859C117.835 110.169 117.589 110.426 117.279 110.631C116.969 110.836 116.612 110.988 116.208 111.088C115.805 111.187 115.381 111.237 114.938 111.237C114.064 111.237 113.306 111.068 112.664 110.731ZM124.343 110.955C124.022 111.132 123.599 111.22 123.073 111.22C121.585 111.22 120.84 110.39 120.84 108.73V103.7H119.379V102.538H120.84V100.463L122.202 100.023V102.538H124.343V103.7H122.202V108.489C122.202 109.059 122.299 109.466 122.492 109.71C122.686 109.953 123.007 110.075 123.455 110.075C123.798 110.075 124.094 109.981 124.343 109.793V110.955ZM132.993 107.128H126.991C127.013 108.074 127.268 108.805 127.755 109.319C128.242 109.834 128.911 110.091 129.764 110.091C130.721 110.091 131.601 109.776 132.403 109.145V110.423C131.656 110.966 130.668 111.237 129.44 111.237C128.239 111.237 127.296 110.852 126.609 110.083C125.923 109.308 125.58 108.221 125.58 106.821C125.58 105.498 125.954 104.422 126.701 103.592C127.453 102.756 128.386 102.338 129.498 102.338C130.61 102.338 131.471 102.698 132.08 103.418C132.688 104.137 132.993 105.136 132.993 106.414V107.128ZM131.598 105.974C131.593 105.188 131.402 104.577 131.025 104.14C130.655 103.703 130.137 103.484 129.473 103.484C128.831 103.484 128.286 103.714 127.838 104.173C127.39 104.632 127.113 105.233 127.008 105.974H131.598ZM146.556 107.128H140.555C140.577 108.074 140.831 108.805 141.318 109.319C141.805 109.834 142.475 110.091 143.327 110.091C144.285 110.091 145.164 109.776 145.967 109.145V110.423C145.22 110.966 144.232 111.237 143.003 111.237C141.803 111.237 140.859 110.852 140.173 110.083C139.487 109.308 139.144 108.221 139.144 106.821C139.144 105.498 139.517 104.422 140.264 103.592C141.017 102.756 141.949 102.338 143.062 102.338C144.174 102.338 145.034 102.698 145.643 103.418C146.252 104.137 146.556 105.136 146.556 106.414V107.128ZM145.162 105.974C145.156 105.188 144.965 104.577 144.589 104.14C144.218 103.703 143.701 103.484 143.037 103.484C142.395 103.484 141.85 103.714 141.401 104.173C140.953 104.632 140.676 105.233 140.571 105.974H145.162ZM152.773 110.731V109.27C153.515 109.817 154.331 110.091 155.222 110.091C156.417 110.091 157.015 109.693 157.015 108.896C157.015 108.669 156.963 108.478 156.857 108.323C156.758 108.163 156.619 108.022 156.442 107.9C156.271 107.778 156.066 107.67 155.828 107.576C155.596 107.477 155.344 107.374 155.073 107.269C154.696 107.12 154.364 106.97 154.077 106.821C153.794 106.666 153.556 106.494 153.363 106.306C153.175 106.113 153.031 105.894 152.931 105.651C152.837 105.407 152.79 105.122 152.79 104.796C152.79 104.397 152.881 104.046 153.064 103.741C153.247 103.431 153.49 103.174 153.794 102.969C154.099 102.759 154.445 102.601 154.832 102.496C155.225 102.391 155.629 102.338 156.044 102.338C156.78 102.338 157.438 102.466 158.02 102.72V104.098C157.394 103.689 156.675 103.484 155.861 103.484C155.607 103.484 155.377 103.514 155.172 103.575C154.968 103.631 154.791 103.711 154.641 103.816C154.497 103.921 154.384 104.048 154.301 104.198C154.223 104.342 154.185 104.502 154.185 104.679C154.185 104.901 154.223 105.086 154.301 105.235C154.384 105.385 154.503 105.518 154.658 105.634C154.813 105.75 155.001 105.855 155.222 105.949C155.444 106.043 155.695 106.146 155.978 106.256C156.354 106.4 156.691 106.55 156.99 106.705C157.289 106.854 157.544 107.026 157.754 107.219C157.964 107.408 158.125 107.626 158.235 107.875C158.352 108.124 158.41 108.42 158.41 108.763C158.41 109.184 158.316 109.549 158.127 109.859C157.945 110.169 157.699 110.426 157.389 110.631C157.079 110.836 156.722 110.988 156.318 111.088C155.914 111.187 155.491 111.237 155.048 111.237C154.174 111.237 153.415 111.068 152.773 110.731ZM164.062 111.237C162.806 111.237 161.802 110.841 161.049 110.05C160.302 109.253 159.929 108.199 159.929 106.887C159.929 105.46 160.319 104.345 161.099 103.542C161.879 102.74 162.934 102.338 164.262 102.338C165.529 102.338 166.517 102.729 167.225 103.509C167.939 104.289 168.296 105.371 168.296 106.755C168.296 108.11 167.911 109.198 167.142 110.017C166.378 110.83 165.352 111.237 164.062 111.237ZM164.162 103.484C163.288 103.484 162.596 103.783 162.087 104.38C161.578 104.973 161.323 105.792 161.323 106.838C161.323 107.845 161.581 108.639 162.095 109.22C162.61 109.801 163.299 110.091 164.162 110.091C165.042 110.091 165.717 109.806 166.188 109.236C166.663 108.666 166.901 107.856 166.901 106.804C166.901 105.742 166.663 104.923 166.188 104.347C165.717 103.772 165.042 103.484 164.162 103.484ZM171.832 111.038H170.471V98.4537H171.832V111.038ZM178.531 110.955C178.21 111.132 177.786 111.22 177.261 111.22C175.772 111.22 175.028 110.39 175.028 108.73V103.7H173.567V102.538H175.028V100.463L176.389 100.023V102.538H178.531V103.7H176.389V108.489C176.389 109.059 176.486 109.466 176.68 109.71C176.873 109.953 177.194 110.075 177.643 110.075C177.986 110.075 178.282 109.981 178.531 109.793V110.955ZM187.18 107.128H181.179C181.201 108.074 181.455 108.805 181.942 109.319C182.429 109.834 183.099 110.091 183.951 110.091C184.909 110.091 185.788 109.776 186.591 109.145V110.423C185.844 110.966 184.856 111.237 183.627 111.237C182.427 111.237 181.483 110.852 180.797 110.083C180.111 109.308 179.768 108.221 179.768 106.821C179.768 105.498 180.141 104.422 180.888 103.592C181.641 102.756 182.573 102.338 183.686 102.338C184.798 102.338 185.658 102.698 186.267 103.418C186.876 104.137 187.18 105.136 187.18 106.414V107.128ZM185.786 105.974C185.78 105.188 185.589 104.577 185.213 104.14C184.842 103.703 184.325 103.484 183.661 103.484C183.019 103.484 182.474 103.714 182.025 104.173C181.577 104.632 181.3 105.233 181.195 105.974H185.786ZM199.997 111.038H198.635V109.71H198.602C198.01 110.728 197.138 111.237 195.987 111.237C195.141 111.237 194.477 111.013 193.995 110.565C193.519 110.116 193.281 109.521 193.281 108.78C193.281 107.192 194.216 106.268 196.087 106.007L198.635 105.651C198.635 104.206 198.051 103.484 196.884 103.484C195.86 103.484 194.936 103.833 194.111 104.53V103.135C194.947 102.604 195.91 102.338 197 102.338C198.998 102.338 199.997 103.395 199.997 105.509V111.038ZM198.635 106.738L196.585 107.02C195.954 107.109 195.478 107.266 195.157 107.493C194.836 107.715 194.676 108.11 194.676 108.68C194.676 109.095 194.822 109.436 195.116 109.701C195.415 109.961 195.81 110.091 196.303 110.091C196.978 110.091 197.534 109.856 197.971 109.386C198.414 108.91 198.635 108.31 198.635 107.585V106.738ZM211.427 99.649C211.161 99.4996 210.86 99.4249 210.522 99.4249C209.57 99.4249 209.094 100.025 209.094 101.226V102.538H211.086V103.7H209.094V111.038H207.741V103.7H206.289V102.538H207.741V101.16C207.741 100.269 207.999 99.566 208.513 99.0514C209.028 98.5312 209.67 98.2711 210.439 98.2711C210.854 98.2711 211.183 98.3209 211.427 98.4205V99.649ZM216.108 111.237C214.852 111.237 213.848 110.841 213.095 110.05C212.348 109.253 211.975 108.199 211.975 106.887C211.975 105.46 212.365 104.345 213.145 103.542C213.925 102.74 214.979 102.338 216.308 102.338C217.575 102.338 218.563 102.729 219.271 103.509C219.985 104.289 220.342 105.371 220.342 106.755C220.342 108.11 219.957 109.198 219.188 110.017C218.424 110.83 217.398 111.237 216.108 111.237ZM216.208 103.484C215.334 103.484 214.642 103.783 214.133 104.38C213.624 104.973 213.369 105.792 213.369 106.838C213.369 107.845 213.626 108.639 214.141 109.22C214.656 109.801 215.345 110.091 216.208 110.091C217.088 110.091 217.763 109.806 218.233 109.236C218.709 108.666 218.947 107.856 218.947 106.804C218.947 105.742 218.709 104.923 218.233 104.347C217.763 103.772 217.088 103.484 216.208 103.484ZM226.459 110.955C226.139 111.132 225.715 111.22 225.189 111.22C223.701 111.22 222.957 110.39 222.957 108.73V103.7H221.496V102.538H222.957V100.463L224.318 100.023V102.538H226.459V103.7H224.318V108.489C224.318 109.059 224.415 109.466 224.608 109.71C224.802 109.953 225.123 110.075 225.571 110.075C225.914 110.075 226.21 109.981 226.459 109.793V110.955ZM231.83 111.237C230.574 111.237 229.569 110.841 228.817 110.05C228.07 109.253 227.696 108.199 227.696 106.887C227.696 105.46 228.086 104.345 228.867 103.542C229.647 102.74 230.701 102.338 232.029 102.338C233.297 102.338 234.284 102.729 234.993 103.509C235.707 104.289 236.063 105.371 236.063 106.755C236.063 108.11 235.679 109.198 234.91 110.017C234.146 110.83 233.119 111.237 231.83 111.237ZM231.93 103.484C231.055 103.484 230.364 103.783 229.854 104.38C229.345 104.973 229.091 105.792 229.091 106.838C229.091 107.845 229.348 108.639 229.863 109.22C230.377 109.801 231.066 110.091 231.93 110.091C232.81 110.091 233.485 109.806 233.955 109.236C234.431 108.666 234.669 107.856 234.669 106.804C234.669 105.742 234.431 104.923 233.955 104.347C233.485 103.772 232.81 103.484 231.93 103.484ZM238.711 111.22C238.457 111.22 238.238 111.129 238.056 110.946C237.879 110.764 237.79 110.545 237.79 110.291C237.79 110.036 237.879 109.817 238.056 109.635C238.238 109.447 238.457 109.353 238.711 109.353C238.972 109.353 239.193 109.447 239.375 109.635C239.558 109.817 239.649 110.036 239.649 110.291C239.649 110.545 239.558 110.764 239.375 110.946C239.193 111.129 238.972 111.22 238.711 111.22Z" fill="#666666"/>
</svg>
